<svg xmlns="http://www.w3.org/2000/svg" style="display:none">
  <symbol id="pin" viewBox="0 0 24 24" fill="none" stroke="currentColor" stroke-width="2" stroke-linecap="round" stroke-linejoin="round">
    <path d="M12 17v5"/>
    <path d="M9 22h6"/>
    <path d="M22 12l-5-5v-5H7v5l-5 5h20z"/>
  </symbol>
  <symbol id="edit" viewBox="0 0 24 24" fill="none" stroke="currentColor" stroke-width="2" stroke-linecap="round" stroke-linejoin="round">
    <path d="M11 4H4a2 2 0 0 0-2 2v14a2 2 0 0 0 2 2h14a2 2 0 0 0 2-2v-7"/>
    <path d="M18.5 2.5a2.121 2.121 0 0 1 3 3L12 15l-4 1 1-4 9.5-9.5z"/>
  </symbol>
  <symbol id="delete" viewBox="0 0 24 24" fill="none" stroke="currentColor" stroke-width="2" stroke-linecap="round" stroke-linejoin="round">
    <polyline points="3 6 5 6 21 6" />
    <path d="M19 6l-1 14a2 2 0 0 1-2 2H8a2 2 0 0 1-2-2L5 6m5 0V4a1 1 0 0 1 1-1h2a1 1 0 0 1 1 1v2" />
    <line x1="10" y1="11" x2="10" y2="17" />
    <line x1="14" y1="11" x2="14" y2="17" />
  </symbol>
  <symbol id="share" viewBox="0 0 24 24" fill="none" stroke="currentColor" stroke-width="2" stroke-linecap="round" stroke-linejoin="round">
    <circle cx="18" cy="5" r="3"/>
    <circle cx="6" cy="12" r="3"/>
    <circle cx="18" cy="19" r="3"/>
    <line x1="8.59" y1="13.51" x2="15.42" y2="17.49"/>
    <line x1="15.41" y1="6.51" x2="8.59" y2="10.49"/>
  </symbol>
  <symbol id="close" viewBox="0 0 24 24" fill="none" stroke="currentColor" stroke-width="2" stroke-linecap="round" stroke-linejoin="round">
    <line x1="18" y1="6" x2="6" y2="18" />
    <line x1="6" y1="6" x2="18" y2="18" />
  </symbol>
  <symbol id="save" viewBox="0 0 24 24" fill="none" stroke="currentColor" stroke-width="2" stroke-linecap="round" stroke-linejoin="round">
    <polyline points="20 6 9 17 4 12" />
  </symbol>
  <symbol id="archive" viewBox="0 0 24 24" fill="none" stroke="currentColor" stroke-width="1.5" stroke-linecap="round" stroke-linejoin="round">
    <path d="M20.25 7.5L19.6246 18.1321C19.5546 19.3214 18.5698 20.25 17.3785 20.25H6.62154C5.43022 20.25 4.44538 19.3214 4.37542 18.1321L3.75 7.5M9.99976 11.25H13.9998M3.375 7.5H20.625C21.2463 7.5 21.75 6.99632 21.75 6.375V4.875C21.75 4.25368 21.2463 3.75 20.625 3.75H3.375C2.75368 3.75 2.25 4.25368 2.25 4.875V6.375C2.25 6.99632 2.75368 7.5 3.375 7.5Z" />
  </symbol>
  <symbol id="palette" viewBox="0 0 24 24" fill="none" stroke="currentColor" stroke-width="1.5" stroke-linecap="round" stroke-linejoin="round">
    <path d="M9.53086 16.1224C9.08517 15.0243 8.00801 14.25 6.75 14.25C5.09315 14.25 3.75 15.5931 3.75 17.25C3.75 18.4926 2.74262 19.5 1.49998 19.5C1.44928 19.5 1.39898 19.4983 1.34912 19.495C2.12648 20.8428 3.58229 21.75 5.24998 21.75C7.72821 21.75 9.73854 19.7467 9.74993 17.2711C9.74998 17.2641 9.75 17.2571 9.75 17.25C9.75 16.8512 9.67217 16.4705 9.53086 16.1224ZM9.53086 16.1224C10.7252 15.7153 11.8612 15.1705 12.9175 14.5028M7.875 14.4769C8.2823 13.2797 8.8281 12.1411 9.49724 11.0825M12.9175 14.5028C14.798 13.3141 16.4259 11.7362 17.6806 9.85406L21.5566 4.04006C21.6827 3.85093 21.75 3.6287 21.75 3.40139C21.75 2.76549 21.2345 2.25 20.5986 2.25C20.3713 2.25 20.1491 2.31729 19.9599 2.44338L14.1459 6.31937C12.2638 7.57413 10.6859 9.20204 9.49724 11.0825M12.9175 14.5028C12.2396 12.9833 11.0167 11.7604 9.49724 11.0825" />
  </symbol>
  <symbol id="reminder" viewBox="0 0 24 24" fill="none" stroke="currentColor" stroke-width="1.5" stroke-linecap="round" stroke-linejoin="round">
    <path d="M14.8569 17.0817C16.7514 16.857 18.5783 16.4116 20.3111 15.7719C18.8743 14.177 17.9998 12.0656 17.9998 9.75V9.04919C17.9999 9.03281 18 9.01641 18 9C18 5.68629 15.3137 3 12 3C8.68629 3 6 5.68629 6 9L5.9998 9.75C5.9998 12.0656 5.12527 14.177 3.68848 15.7719C5.4214 16.4116 7.24843 16.857 9.14314 17.0818M14.8569 17.0817C13.92 17.1928 12.9666 17.25 11.9998 17.25C11.0332 17.25 10.0799 17.1929 9.14314 17.0818M14.8569 17.0817C14.9498 17.3711 15 17.6797 15 18C15 19.6569 13.6569 21 12 21C10.3431 21 9 19.6569 9 18C9 17.6797 9.05019 17.3712 9.14314 17.0818" />
  </symbol>
</svg>
