<svg xmlns="http://www.w3.org/2000/svg" viewBox="39 39 178 178" shape-rendering="geometricPrecision">
  <defs>
    <!-- зелёный прогресс -->
    <linearGradient id="ring" x1="0" y1="0" x2="1" y2="1">
      <stop offset="0" stop-color="#16A34A"/>
      <stop offset="1" stop-color="#86EFAC"/>
    </linearGradient>
    <!-- фиолет для "I" -->
    <linearGradient id="violet" x1="0" y1="0" x2="0" y2="1">
      <stop offset="0" stop-color="#8B5CF6"/>
      <stop offset="1" stop-color="#6D28D9"/>
    </linearGradient>
    <!-- половина для буквы D -->
    <clipPath id="clipRight"><rect x="0" y="-80" width="120" height="160"/></clipPath>
  </defs>

  <!-- фон ПРОЗРАЧНЫЙ, без halo/фильтра -->
  <g transform="translate(128,128)">
    <!-- серый базовый круг-прогресс фон -->
    <circle r="84" fill="none" stroke="#E5E7EB" stroke-width="10"/>

    <!-- прогресс-кольцо -->
    <circle r="84" fill="none" stroke="url(#ring)" stroke-width="10" stroke-linecap="round"
            transform="rotate(-90)" stroke-dasharray="396 528" stroke-dashoffset="0"/>

    <!-- монограмма; лёгкий оптический сдвиг влево -->
    <g transform="translate(-6,0)">
      <!-- I (узкая) -->
      <rect x="-38" y="-60" width="22" height="120" rx="11" fill="url(#violet)"/>

      <!-- D (тёмная) только в правой половине -->
      <g clip-path="url(#clipRight)">
        <path fill="#111827" fill-rule="evenodd"
              d="M60,0A60,60,0,1,1,-60,0A60,60,0,1,1,60,0
                 M36,0A36,36,0,1,0,-36,0A36,36,0,1,0,36,0Z"/>
        <!-- фиолетовый акцент снизу -->
        <path fill="#7B61FF" d="M36,0A36,36,0,0,1,22,56A60,60,0,0,0,60,0Z"/>
        <!-- «нейро-дуга» и узлы -->
        <path d="M18,-42 Q36,-24 36,0 Q36,24 18,42"
              fill="none" stroke="#111827" stroke-width="4" opacity=".18"/>
        <circle cx="18" cy="-42" r="4.5" fill="#16A34A"/>
        <circle cx="36" cy="0"    r="5"   fill="#7B61FF"/>
        <circle cx="18" cy="42"  r="4.5" fill="#16A34A"/>
      </g>
    </g>
  </g>
</svg>
