<svg xmlns="http://www.w3.org/2000/svg" viewBox="0 0 256 256" shape-rendering="geometricPrecision">
  <defs>
    <linearGradient id="ring" x1="0" y1="0" x2="1" y2="1">
      <stop offset="0" stop-color="#16A34A"/>
      <stop offset="1" stop-color="#86EFAC"/>
    </linearGradient>
    <linearGradient id="violet" x1="0" y1="0" x2="0" y2="1">
      <stop offset="0" stop-color="#8B5CF6"/>
      <stop offset="1" stop-color="#6D28D9"/>
    </linearGradient>
    <clipPath id="clipRight"><rect x="0" y="-80" width="120" height="160"/></clipPath>
  </defs>

  <!-- светлый фон -->
  <rect width="256" height="256" rx="28" fill="#FFFFFF"/>
  <rect x="10" y="10" width="236" height="236" rx="24" fill="none" stroke="#E5E7EB" stroke-width="2"/>

  <!-- прогресс-кольцо -->
  <g transform="translate(128,128)">
    <circle r="84" fill="none" stroke="#E5E7EB" stroke-width="10"/>
    <circle r="84" fill="none" stroke="url(#ring)" stroke-width="10" stroke-linecap="round"
            transform="rotate(-90)" stroke-dasharray="396 528" stroke-dashoffset="0"/>
  </g>

  <!-- монограмма, слегка сдвинута влево для оптики -->
  <g transform="translate(128,128) translate(-6,0)">
    <!-- I (узкая) -->
    <rect x="-38" y="-60" width="22" height="120" rx="11" fill="url(#violet)"/>

    <!-- D (тёмная), вырезанная из правой половины -->
    <g clip-path="url(#clipRight)">
      <path fill="#111827" fill-rule="evenodd"
            d="M60,0A60,60,0,1,1,-60,0A60,60,0,1,1,60,0
               M36,0A36,36,0,1,0,-36,0A36,36,0,1,0,36,0Z"/>
      <!-- нижняя «полка»-акцент -->
      <path fill="#7B61FF" d="M36,0A36,36,0,0,1,22,56A60,60,0,0,0,60,0Z"/>

      <!-- нейро-дуга и узлы -->
      <path d="M18,-42 Q36,-24 36,0 Q36,24 18,42"
            fill="none" stroke="#111827" stroke-width="4" opacity=".18"/>
      <circle cx="18" cy="-42" r="4.5" fill="#16A34A"/>
      <circle cx="36" cy="0"    r="5"   fill="#7B61FF"/>
      <circle cx="18" cy="42"  r="4.5" fill="#16A34A"/>
    </g>
  </g>
</svg>
